<svg xmlns="http://www.w3.org/2000/svg" viewBox="0 0 900 650" role="img" aria-labelledby="title desc">
  <title id="title">Super app con viajes, pedidos, mercado y rutas</title>
  <desc id="desc">Ilustración de una ciudad conectada por una app con servicios de viaje, delivery, marketplace, fletes y buses.</desc>
  <defs>
    <linearGradient id="bg" x1="0" x2="1" y1="0" y2="1">
      <stop offset="0" stop-color="#0D1B4A"/>
      <stop offset="0.55" stop-color="#1B2A6B"/>
      <stop offset="1" stop-color="#2940A0"/>
    </linearGradient>
    <linearGradient id="accent" x1="0" x2="1">
      <stop offset="0" stop-color="#F5C253"/>
      <stop offset="1" stop-color="#E8A020"/>
    </linearGradient>
    <filter id="shadow" x="-20%" y="-20%" width="140%" height="140%">
      <feDropShadow dx="0" dy="18" stdDeviation="18" flood-color="#000" flood-opacity="0.25"/>
    </filter>
  </defs>
  <rect width="900" height="650" rx="42" fill="url(#bg)"/>
  <circle cx="780" cy="90" r="130" fill="#fff" opacity="0.06"/>
  <circle cx="120" cy="560" r="160" fill="#E8A020" opacity="0.08"/>
  <path d="M80 505 C210 440 320 545 460 472 S710 420 830 500" fill="none" stroke="#fff" stroke-width="18" stroke-linecap="round" opacity="0.18"/>
  <path d="M80 505 C210 440 320 545 460 472 S710 420 830 500" fill="none" stroke="#E8A020" stroke-width="5" stroke-linecap="round" stroke-dasharray="16 18"/>

  <g opacity="0.7">
    <rect x="80" y="285" width="72" height="155" rx="10" fill="#FFFFFF" opacity="0.14"/>
    <rect x="172" y="245" width="92" height="195" rx="12" fill="#FFFFFF" opacity="0.11"/>
    <rect x="675" y="250" width="74" height="188" rx="10" fill="#FFFFFF" opacity="0.13"/>
    <rect x="765" y="315" width="64" height="125" rx="10" fill="#FFFFFF" opacity="0.11"/>
    <g fill="#E8A020" opacity="0.45">
      <rect x="96" y="310" width="16" height="16" rx="3"/><rect x="122" y="310" width="16" height="16" rx="3"/><rect x="96" y="342" width="16" height="16" rx="3"/><rect x="122" y="342" width="16" height="16" rx="3"/>
      <rect x="194" y="276" width="18" height="18" rx="3"/><rect x="224" y="276" width="18" height="18" rx="3"/><rect x="194" y="310" width="18" height="18" rx="3"/><rect x="224" y="310" width="18" height="18" rx="3"/>
      <rect x="694" y="282" width="16" height="16" rx="3"/><rect x="722" y="282" width="16" height="16" rx="3"/><rect x="694" y="318" width="16" height="16" rx="3"/><rect x="722" y="318" width="16" height="16" rx="3"/>
    </g>
  </g>

  <g filter="url(#shadow)">
    <rect x="315" y="72" width="270" height="475" rx="42" fill="#fff"/>
    <rect x="338" y="112" width="224" height="393" rx="28" fill="#F7F5F0"/>
    <rect x="368" y="137" width="164" height="18" rx="9" fill="#0D1B4A" opacity="0.12"/>
    <text x="372" y="196" font-family="Outfit, Arial, sans-serif" font-size="34" font-weight="800" fill="#0D1B4A">Iapata</text>
    <text x="372" y="228" font-family="DM Sans, Arial, sans-serif" font-size="16" fill="#6B6560">Todo para todos</text>
    <g transform="translate(365 260)">
      <rect width="74" height="74" rx="22" fill="#EBF0FF"/>
      <path d="M20 47h7m20 0h7m-38-9h44l-6-15H25l-9 15Z" fill="none" stroke="#1B2A6B" stroke-width="4" stroke-linecap="round" stroke-linejoin="round"/>
      <circle cx="27" cy="49" r="5" fill="#E8A020"/><circle cx="52" cy="49" r="5" fill="#E8A020"/>
      <text x="37" y="98" text-anchor="middle" font-family="DM Sans, Arial" font-size="13" fill="#1A1A1A">Viaje</text>
    </g>
    <g transform="translate(461 260)">
      <rect width="74" height="74" rx="22" fill="#FFF3DB"/>
      <path d="M23 31h28l-3 24H26l-3-24Z" fill="none" stroke="#C4841A" stroke-width="4" stroke-linejoin="round"/>
      <path d="M29 31c0-9 16-9 16 0" fill="none" stroke="#C4841A" stroke-width="4" stroke-linecap="round"/>
      <circle cx="37" cy="43" r="4" fill="#E8A020"/>
      <text x="37" y="98" text-anchor="middle" font-family="DM Sans, Arial" font-size="13" fill="#1A1A1A">Pedido</text>
    </g>
    <g transform="translate(365 372)">
      <rect width="74" height="74" rx="22" fill="#E8FFE8"/>
      <path d="M19 54V31l18-12 18 12v23" fill="none" stroke="#2EAD5C" stroke-width="4" stroke-linecap="round" stroke-linejoin="round"/>
      <path d="M28 54V40h18v14" fill="none" stroke="#2EAD5C" stroke-width="4" stroke-linejoin="round"/>
      <text x="37" y="98" text-anchor="middle" font-family="DM Sans, Arial" font-size="13" fill="#1A1A1A">Market</text>
    </g>
    <g transform="translate(461 372)">
      <rect width="74" height="74" rx="22" fill="#E8F8FF"/>
      <path d="M17 46h5V30h25l7 10h5v6" fill="none" stroke="#1B2A6B" stroke-width="4" stroke-linecap="round" stroke-linejoin="round"/>
      <circle cx="27" cy="50" r="6" fill="#E8A020"/><circle cx="52" cy="50" r="6" fill="#E8A020"/>
      <text x="37" y="98" text-anchor="middle" font-family="DM Sans, Arial" font-size="13" fill="#1A1A1A">Flete</text>
    </g>
  </g>

  <g transform="translate(102 156)" filter="url(#shadow)">
    <rect width="178" height="102" rx="24" fill="#fff"/>
    <circle cx="42" cy="50" r="24" fill="url(#accent)"/>
    <path d="M32 53h20m-15-8h10m-2 8v10" stroke="#0D1B4A" stroke-width="4" stroke-linecap="round"/>
    <text x="82" y="45" font-family="Outfit, Arial" font-size="18" font-weight="800" fill="#0D1B4A">Delivery</text>
    <text x="82" y="70" font-family="DM Sans, Arial" font-size="13" fill="#6B6560">30 min</text>
  </g>

  <g transform="translate(634 143)" filter="url(#shadow)">
    <rect width="174" height="112" rx="24" fill="#fff"/>
    <rect x="28" y="40" width="52" height="35" rx="9" fill="#1B2A6B"/>
    <rect x="85" y="50" width="42" height="25" rx="7" fill="#2940A0"/>
    <circle cx="43" cy="82" r="8" fill="#E8A020"/><circle cx="110" cy="82" r="8" fill="#E8A020"/>
    <text x="28" y="28" font-family="Outfit, Arial" font-size="18" font-weight="800" fill="#0D1B4A">Fletes</text>
    <text x="28" y="102" font-family="DM Sans, Arial" font-size="13" fill="#6B6560">paquetes y cargas</text>
  </g>

  <g transform="translate(118 414)" filter="url(#shadow)">
    <rect width="184" height="102" rx="24" fill="#fff"/>
    <path d="M36 44h89" stroke="#E8A020" stroke-width="6" stroke-linecap="round" stroke-dasharray="12 12"/>
    <rect x="60" y="24" width="54" height="48" rx="13" fill="#1B2A6B"/>
    <rect x="69" y="34" width="36" height="15" rx="4" fill="#fff" opacity="0.75"/>
    <circle cx="73" cy="76" r="6" fill="#E8A020"/><circle cx="103" cy="76" r="6" fill="#E8A020"/>
    <text x="124" y="47" font-family="Outfit, Arial" font-size="17" font-weight="800" fill="#0D1B4A">Bus</text>
    <text x="124" y="68" font-family="DM Sans, Arial" font-size="12" fill="#6B6560">rutas</text>
  </g>

  <g transform="translate(638 426)" filter="url(#shadow)">
    <rect width="168" height="100" rx="24" fill="#fff"/>
    <circle cx="47" cy="34" r="14" fill="#E8A020"/>
    <path d="M47 50v18m0-12 18 12M47 56 30 70" stroke="#0D1B4A" stroke-width="5" stroke-linecap="round"/>
    <rect x="70" y="43" width="36" height="31" rx="8" fill="#F5C253" stroke="#C4841A" stroke-width="3"/>
    <text x="28" y="92" font-family="DM Sans, Arial" font-size="12" fill="#6B6560">entrega a pie</text>
  </g>
</svg>
